<?xml version="1.0" encoding="utf-8"?>
<!-- Generator: Adobe Illustrator 22.1.0, SVG Export Plug-In . SVG Version: 6.00 Build 0)  -->
<svg version="1.1" id="Calque_1" xmlns="http://www.w3.org/2000/svg" xmlns:xlink="http://www.w3.org/1999/xlink" x="0px" y="0px"
	 width="50px" height="50px" viewBox="0 0 50 50" style="enable-background:new 0 0 50 50;" xml:space="preserve">
<style type="text/css">
	.st0{fill:#86CBF5;}
</style>
<g>
	<g>
		<path class="st0" d="M31,31.3c0,0.2,0,0.5,0,0.8c0,3.8-3.1,6.8-6.8,6.8c-3.8,0-6.8-3.1-6.8-6.8c0-3.5,2.7-6.4,6.1-6.8v3l6.1-4.6
			l-6.1-4.6v3.1c-5.1,0.4-9.1,4.7-9.1,9.9c0,5.5,4.4,9.9,9.9,9.9s9.9-4.4,9.9-9.9c0-0.3,0-0.5,0-0.8H31z"/>
		<path class="st0" d="M42.6,19.5c-1.4-3.7-5-6.4-9.3-6.4c-1,0-1.9,0.1-2.8,0.4C28.1,9.6,23.8,7,18.9,7C11.4,7,5.3,13,5.2,20.4
			c-2.7,1.6-4.6,4.5-4.6,7.9c0,5,4.1,9.1,9.1,9.1h2.7c-0.4-1-0.8-2-0.9-3H9.7c-3.4,0-6.1-2.7-6.1-6.1c0-2.9,2-5.3,4.7-5.9
			c-0.1-0.5-0.1-1.1-0.1-1.7C8.2,14.8,13,10,18.9,10c4.8,0,8.9,3.2,10.2,7.6c1.2-0.9,2.6-1.5,4.3-1.5c3.5,0,6.4,2.7,6.8,6.1h0
			c3.4,0,6.1,2.7,6.1,6.1c0,3.4-2.7,6.1-6.1,6.1h-3.2c-0.2,1.1-0.5,2.1-0.9,3h4.2c5,0,9.1-4.1,9.1-9.1
			C49.3,24.1,46.5,20.6,42.6,19.5z"/>
	</g>
</g>
</svg>
