<?xml version="1.0" encoding="utf-8"?>
<!-- Generator: Adobe Illustrator 22.1.0, SVG Export Plug-In . SVG Version: 6.00 Build 0)  -->
<svg version="1.1" id="Calque_1" xmlns="http://www.w3.org/2000/svg" xmlns:xlink="http://www.w3.org/1999/xlink" x="0px" y="0px"
	 width="50px" height="50px" viewBox="0 0 50 50" style="enable-background:new 0 0 50 50;" xml:space="preserve">
<style type="text/css">
	.st0{fill:#86CBF5;}
</style>
<g>
	<g>
		<g>
			<path class="st0" d="M43.9,20.5L40.9,20c-0.3-1-0.7-1.9-1.2-2.8l1.7-2.4c0.7-1,0.6-2.4-0.3-3.3l-2.6-2.6
				c-0.5-0.5-1.1-0.8-1.8-0.8c-0.5,0-1.1,0.2-1.5,0.5l-2.4,1.7C31.9,9.8,31,9.3,29.9,9l-0.5-2.9C29.2,4.9,28.2,4,26.9,4h-3.7
				c-1.3,0-2.3,0.9-2.5,2.2l-0.5,3c-1,0.3-1.9,0.7-2.8,1.2L15,8.6c-0.4-0.3-1-0.5-1.5-0.5c-0.7,0-1.3,0.3-1.8,0.8L9,11.5
				c-0.9,0.9-1,2.3-0.3,3.3l1.7,2.4c-0.5,0.9-0.9,1.9-1.2,2.8l-2.9,0.5c-1.2,0.2-2.2,1.3-2.2,2.5v3.7c0,1.3,0.9,2.3,2.2,2.5l3,0.5
				c0.3,1,0.7,1.9,1.2,2.8L8.9,35c-0.7,1-0.6,2.4,0.3,3.3l2.6,2.6c0.5,0.5,1.1,0.8,1.8,0.8c0.5,0,1.1-0.2,1.5-0.5l2.4-1.7
				c0.9,0.5,1.8,0.8,2.8,1.1l0.5,2.9c0.2,1.2,1.3,2.2,2.5,2.2H27c1.3,0,2.3-0.9,2.5-2.2l0.5-2.9c1-0.3,1.9-0.7,2.8-1.2l2.4,1.7
				c0.4,0.3,1,0.5,1.5,0.5l0,0c0.7,0,1.3-0.3,1.8-0.8l2.6-2.6c0.9-0.9,1-2.3,0.3-3.3l-1.7-2.4c0.5-0.9,0.9-1.9,1.2-2.8l2.9-0.5
				c1.2-0.2,2.2-1.3,2.2-2.5V23C46,21.8,45.1,20.7,43.9,20.5z M43.7,26.7c0,0.1-0.1,0.2-0.2,0.2l-3.7,0.6c-0.5,0.1-0.8,0.4-0.9,0.9
				c-0.3,1.3-0.8,2.5-1.5,3.7c-0.2,0.4-0.2,0.9,0.1,1.3l2.2,3c0.1,0.1,0.1,0.2,0,0.3l-2.6,2.6c-0.1,0.1-0.1,0.1-0.2,0.1
				c-0.1,0-0.1,0-0.1,0l-3-2.2c-0.4-0.3-0.9-0.3-1.3-0.1c-1.1,0.7-2.4,1.2-3.7,1.5c-0.5,0.1-0.8,0.5-0.9,0.9l-0.6,3.7
				c0,0.1-0.1,0.2-0.2,0.2h-3.7c-0.1,0-0.2-0.1-0.2-0.2l-0.6-3.7c-0.1-0.5-0.4-0.8-0.9-0.9c-1.2-0.3-2.4-0.8-3.6-1.5
				C17.9,37,17.7,37,17.5,37c-0.2,0-0.5,0.1-0.7,0.2l-3,2.2c0,0-0.1,0-0.1,0c0,0-0.1,0-0.2-0.1l-2.6-2.6c-0.1-0.1-0.1-0.2,0-0.3
				l2.1-3c0.3-0.4,0.3-0.9,0.1-1.3c-0.7-1.1-1.2-2.4-1.5-3.6c-0.1-0.4-0.5-0.8-0.9-0.9L6.8,27c-0.1,0-0.2-0.1-0.2-0.2v-3.7
				c0-0.1,0.1-0.2,0.2-0.2l3.6-0.6c0.5-0.1,0.8-0.4,0.9-0.9c0.3-1.3,0.8-2.5,1.5-3.7c0.2-0.4,0.2-0.9-0.1-1.3l-2.2-3
				c-0.1-0.1-0.1-0.2,0-0.3l2.6-2.6c0.1-0.1,0.1-0.1,0.2-0.1c0.1,0,0.1,0,0.1,0l3,2.1c0.4,0.3,0.9,0.3,1.3,0.1
				c1.1-0.7,2.4-1.2,3.6-1.5c0.4-0.1,0.8-0.5,0.9-0.9L23,6.5c0-0.1,0.1-0.2,0.2-0.2h3.7c0.1,0,0.2,0.1,0.2,0.2l0.6,3.6
				c0.1,0.5,0.4,0.8,0.9,0.9c1.3,0.3,2.6,0.8,3.7,1.5c0.4,0.2,0.9,0.2,1.3-0.1l3-2.2c0,0,0.1,0,0.1,0c0,0,0.1,0,0.2,0.1l2.6,2.6
				c0.1,0.1,0.1,0.2,0,0.3l-2.2,3c-0.3,0.4-0.3,0.9-0.1,1.3c0.7,1.1,1.2,2.4,1.5,3.7c0.1,0.5,0.5,0.8,0.9,0.9l3.7,0.6
				c0.1,0,0.2,0.1,0.2,0.2L43.7,26.7L43.7,26.7z"/>
			<path class="st0" d="M25.2,15.8c-5,0-9,4-9,9s4,9,9,9s9-4,9-9S30.1,15.8,25.2,15.8z M25.2,31.5c-3.7,0-6.6-3-6.6-6.6
				s3-6.6,6.6-6.6s6.6,3,6.6,6.6S28.8,31.5,25.2,31.5z"/>
		</g>
	</g>
	<g>
		<g>
			<path class="st0" d="M26,27.3h-1.7c-0.1,0-0.2,0-0.3,0.1c-0.1,0.1-0.1,0.2-0.1,0.3v1.5c0,0.1,0,0.2,0.1,0.3
				c0.1,0.1,0.2,0.1,0.3,0.1H26c0.1,0,0.2,0,0.3-0.1c0.1-0.1,0.1-0.2,0.1-0.3v-1.5c0-0.1,0-0.2-0.1-0.3C26.2,27.3,26.1,27.3,26,27.3
				z"/>
			<path class="st0" d="M26.5,20.5c-0.1-0.1-0.2-0.1-0.3-0.1h-2.1c-0.1,0-0.2,0-0.3,0.1c-0.1,0.1-0.1,0.2-0.1,0.3l0.2,5
				c0,0.1,0,0.2,0.1,0.3c0.1,0.1,0.2,0.1,0.3,0.1H26c0.1,0,0.2,0,0.3-0.1c0.1-0.1,0.1-0.2,0.1-0.3l0.2-5
				C26.6,20.7,26.6,20.6,26.5,20.5z"/>
		</g>
	</g>
</g>
</svg>
