<?xml version="1.0" encoding="utf-8"?>
<!-- Generator: Adobe Illustrator 22.1.0, SVG Export Plug-In . SVG Version: 6.00 Build 0)  -->
<svg version="1.1" id="Calque_1" xmlns="http://www.w3.org/2000/svg" xmlns:xlink="http://www.w3.org/1999/xlink" x="0px" y="0px"
	 width="50px" height="50px" viewBox="0 0 50 50" style="enable-background:new 0 0 50 50;" xml:space="preserve">
<style type="text/css">
	.st0{fill:#FFDF08;}
</style>
<path class="st0" d="M32.3,20.6l-5,5l5,5c0.7,0.7,0.7,1.8,0,2.5c-0.4,0.4-0.8,0.5-1.3,0.5c-0.5,0-0.9-0.2-1.3-0.5l-5-5l-5,5
	c-0.4,0.4-0.8,0.5-1.3,0.5s-0.9-0.2-1.3-0.5c-0.7-0.7-0.7-1.8,0-2.5l5-5l-5-5c-0.7-0.7-0.7-1.8,0-2.5c0.7-0.7,1.8-0.7,2.5,0l5,5l5-5
	c0.7-0.7,1.8-0.7,2.5,0S33,19.9,32.3,20.6z M43.8,10.2L25.4,2.2c-0.5-0.2-1-0.2-1.5,0L5.7,10.2c-0.6,0.3-1.1,0.9-1.1,1.6v14.2
	c0,5.4,2.1,10.8,5.8,15c1.9,2.1,4,3.8,6.4,5c2.5,1.3,5.2,1.9,7.9,1.9c3.8,0,7.5-1.2,10.8-3.6c0.8-0.6,1-1.7,0.4-2.5
	c-0.6-0.8-1.7-1-2.5-0.4c-2.6,1.9-5.6,2.9-8.6,2.9c-8.7,0-16.5-8.7-16.5-18.3v-13l16.4-7.3l16.6,7.3v13c0,3.3-1,6.7-2.7,9.7
	c-0.5,0.9-0.2,2,0.6,2.5c0.9,0.5,2,0.2,2.5-0.6c2.1-3.6,3.3-7.6,3.3-11.5V11.9C44.9,11.2,44.5,10.5,43.8,10.2z"/>
</svg>
