<?xml version="1.0" encoding="utf-8"?>
<!-- Generator: Adobe Illustrator 22.1.0, SVG Export Plug-In . SVG Version: 6.00 Build 0)  -->
<svg version="1.1" id="Calque_1" xmlns="http://www.w3.org/2000/svg" xmlns:xlink="http://www.w3.org/1999/xlink" x="0px" y="0px"
	 width="50px" height="50px" viewBox="0 0 50 50" style="enable-background:new 0 0 50 50;" xml:space="preserve">
<style type="text/css">
	.st0{fill:#86CBF5;}
</style>
<g>
	<g>
		<g>
			<path class="st0" d="M16,35.7l-2,1.8c0.6,0.7,1.4,1.4,2.1,2l1.7-2.1C17.2,36.9,16.6,36.3,16,35.7z"/>
			<path class="st0" d="M13.4,31.5l-2.5,1.1c0.4,0.9,0.8,1.8,1.4,2.6l2.3-1.5C14.1,33,13.7,32.2,13.4,31.5z"/>
			<path class="st0" d="M36.9,9.5c-2.8-1.6-6-2.5-9.2-2.5c-9.2,0-16.9,6.8-18.1,15.9l-4.6-4.6L3,20.2l7.7,7.7l7.7-7.7l-1.9-1.9
				l-4.2,4.2C14,14,22.1,8.4,30.6,10s14,9.7,12.4,18.2s-9.7,14-18.2,12.4c-1.7-0.3-3.4-0.9-4.9-1.8l-1.4,2.3c8.7,5.1,20,2.1,25-6.7
				C48.6,25.7,45.6,14.5,36.9,9.5z"/>
			<polygon class="st0" points="25.7,13.1 25.7,28 31.6,32.5 33.3,30.3 28.4,26.7 28.4,13.1 			"/>
		</g>
	</g>
</g>
</svg>
